<svg xmlns="http://www.w3.org/2000/svg" xmlns:xlink="http://www.w3.org/1999/xlink" viewBox="0,0,256,256" width="480px" height="480px" fill-rule="nonzero"><g fill="#b71c1c" fill-rule="nonzero" stroke="none" stroke-width="1" stroke-linecap="butt" stroke-linejoin="miter" stroke-miterlimit="10" stroke-dasharray="" stroke-dashoffset="0" font-family="none" font-weight="none" font-size="none" text-anchor="none" style="mix-blend-mode: normal"><g transform="scale(5.33333,5.33333)"><path d="M18.001,29.994v5.006l3.994,-0.005v-4.996l-1.994,2.005z"></path><path d="M46.586,21.441c-0.177,-0.221 -0.84,-0.354 -0.84,-0.354l-0.796,1.592l0.088,-1.769c0,0 -4.821,-1.946 -8.668,-2.875c-3.847,-0.929 -6.58,-1.291 -8.048,-1.326c-1.062,-0.026 -3.097,0.088 -3.097,0.088l1.725,1.636c0,0 -2.167,-0.885 -2.963,-1.194c-0.796,-0.309 -2.034,-0.31 -2.654,-0.354c-0.619,-0.044 -1.15,0.221 -1.15,0.221c0,0 -0.575,0.442 0.752,3.405c1.088,2.43 3.719,3.965 4.632,4.44c-5.917,-1.284 -6.578,-7.005 -6.578,-7.005c0,0 -3.603,-0.037 -8.757,1.769c-5.824,2.041 -9.288,5.971 -9.288,5.971c0,0 4.6,-1.548 8.492,-0.487c3.892,1.061 5.497,3.788 5.497,3.788l0.107,-3.007h2.936l2.251,2.713l1.758,-2.677h2.971c0,0 0.015,0 0.036,-0.001v5.979c0,0 2.014,-1.665 3.372,-2.328c1.813,-0.885 6.015,-0.619 6.015,-0.619c0,0 -0.067,-0.47 -0.315,-0.967c-0.352,-0.704 0.573,-0.935 0.573,-0.935c0,0 8.278,-1.813 9.206,-1.99c0.929,-0.177 1.592,-0.575 1.813,-0.796c0.221,-0.221 0.84,-1.769 0.973,-1.946c0.134,-0.176 0.134,-0.751 -0.043,-0.972zM21.2,18.389c0.221,-0.354 0.885,-0.487 1.902,0c1.2,0.574 2.654,2.477 2.654,2.477l-1.238,-0.575l0.619,1.106l-1.106,-0.619l0.973,1.415l-0.663,-0.177l0.885,1.459c-3.849,-2.211 -4.247,-4.732 -4.026,-5.086zM37.918,20.556l-0.663,0.486c0,0 -2.654,0.354 -3.361,0.31c-0.708,-0.044 -1.15,-1.106 -1.15,-1.106l-1.459,-0.885zM32.92,26.748c-0.487,0.398 -0.044,1.371 -0.044,1.371c-0.663,-0.486 -1.46,-1.415 -0.752,-1.946c0.708,-0.531 5.882,-1.194 5.882,-1.194c0,0 -4.6,1.371 -5.086,1.769z"></path></g></g><g fill="#b71c1c" fill-rule="nonzero" stroke="none" stroke-width="1" stroke-linecap="butt" stroke-linejoin="miter" stroke-miterlimit="10" stroke-dasharray="" stroke-dashoffset="0" font-family="none" font-weight="none" font-size="none" text-anchor="none" style="mix-blend-mode: normal"><g><path d="M13.29333,183.28333h9.18l8.77,24.75l8.72,-24.75h9.23v34.12h-7.05v-9.33l0.7,-16.1l-9.21,25.43h-4.83l-9.18,-25.41l0.7,16.08v9.33h-7.03zM53.83333,204.79333v-0.3c0,-2.52 0.48667,-4.76333 1.46,-6.73c0.96667,-1.96667 2.36,-3.49 4.18,-4.57c1.82,-1.08 3.93333,-1.62 6.34,-1.62v0c3.42,0 6.21333,1.04667 8.38,3.14c2.16667,2.09333 3.37333,4.93667 3.62,8.53v0l0.05,1.74c0,3.88667 -1.08667,7.00667 -3.26,9.36c-2.17333,2.35333 -5.08667,3.53 -8.74,3.53c-3.66,0 -6.58,-1.17333 -8.76,-3.52c-2.18,-2.34 -3.27,-5.52667 -3.27,-9.56zM60.61333,204.98333v0c0,2.40667 0.45333,4.24667 1.36,5.52c0.90667,1.27333 2.20333,1.91 3.89,1.91v0c1.64,0 2.92,-0.63 3.84,-1.89c0.92,-1.26 1.38,-3.27 1.38,-6.03v0c0,-2.36 -0.46,-4.19 -1.38,-5.49c-0.92,-1.29333 -2.21667,-1.94 -3.89,-1.94v0c-1.65333,0 -2.93333,0.64333 -3.84,1.93c-0.90667,1.28667 -1.36,3.28333 -1.36,5.99zM81.89333,192.04333h6.37l0.21,2.93c1.81333,-2.26667 4.24333,-3.4 7.29,-3.4v0c2.68667,0 4.68667,0.79 6,2.37c1.31333,1.58 1.98667,3.94 2.02,7.08v0v16.38h-6.77v-16.22c0,-1.43333 -0.31333,-2.47667 -0.94,-3.13c-0.62667,-0.64667 -1.66667,-0.97 -3.12,-0.97v0c-1.90667,0 -3.33667,0.81333 -4.29,2.44v0v17.88h-6.77zM107.93333,204.81333v-0.28c0,-3.88667 0.92333,-7.02 2.77,-9.4c1.85333,-2.37333 4.35,-3.56 7.49,-3.56v0c2.78667,0 4.95333,0.95333 6.5,2.86v0l0.28,-2.39h6.14v24.52c0,2.21333 -0.50333,4.14333 -1.51,5.79c-1.01333,1.64 -2.43333,2.89 -4.26,3.75c-1.82667,0.85333 -3.96667,1.28 -6.42,1.28v0c-1.86,0 -3.67333,-0.37 -5.44,-1.11c-1.76667,-0.74 -3.10333,-1.69667 -4.01,-2.87v0l3,-4.12c1.69333,1.88667 3.74333,2.83 6.15,2.83v0c1.79333,0 3.19,-0.48 4.19,-1.44c1,-0.96 1.5,-2.32333 1.5,-4.09v0v-1.36c-1.56,1.76667 -3.61333,2.65 -6.16,2.65v0c-3.04667,0 -5.51333,-1.19333 -7.4,-3.58c-1.88,-2.38 -2.82,-5.54 -2.82,-9.48zM114.70333,205.03333v0c0,2.29333 0.46,4.09333 1.38,5.4c0.92667,1.3 2.19333,1.95 3.8,1.95v0c2.06,0 3.53667,-0.77333 4.43,-2.32v0v-10.66c-0.90667,-1.54667 -2.36667,-2.32 -4.38,-2.32v0c-1.62667,0 -2.90333,0.66333 -3.83,1.99c-0.93333,1.32667 -1.4,3.31333 -1.4,5.96zM135.26333,204.79333v-0.3c0,-2.52 0.48333,-4.76333 1.45,-6.73c0.96667,-1.96667 2.36,-3.49 4.18,-4.57c1.82,-1.08 3.93333,-1.62 6.34,-1.62v0c3.42667,0 6.22,1.04667 8.38,3.14c2.16667,2.09333 3.37333,4.93667 3.62,8.53v0l0.05,1.74c0,3.88667 -1.08667,7.00667 -3.26,9.36c-2.17333,2.35333 -5.08667,3.53 -8.74,3.53c-3.66,0 -6.57667,-1.17333 -8.75,-3.52c-2.18,-2.34 -3.27,-5.52667 -3.27,-9.56zM142.03333,204.98333v0c0,2.40667 0.45333,4.24667 1.36,5.52c0.90667,1.27333 2.20333,1.91 3.89,1.91v0c1.64,0 2.92,-0.63 3.84,-1.89c0.92667,-1.26 1.39,-3.27 1.39,-6.03v0c0,-2.36 -0.46333,-4.19 -1.39,-5.49c-0.92,-1.29333 -2.21667,-1.94 -3.89,-1.94v0c-1.65333,0 -2.93333,0.64333 -3.84,1.93c-0.90667,1.28667 -1.36,3.28333 -1.36,5.99zM162.40333,204.79333v-0.3c0,-2.52 0.48333,-4.76333 1.45,-6.73c0.96667,-1.96667 2.36,-3.49 4.18,-4.57c1.82,-1.08 3.93333,-1.62 6.34,-1.62v0c3.42667,0 6.22,1.04667 8.38,3.14c2.16667,2.09333 3.37333,4.93667 3.62,8.53v0l0.05,1.74c0,3.88667 -1.08667,7.00667 -3.26,9.36c-2.17333,2.35333 -5.08667,3.53 -8.74,3.53c-3.65333,0 -6.57,-1.17333 -8.75,-3.52c-2.18,-2.34 -3.27,-5.52667 -3.27,-9.56zM169.17333,204.98333v0c0,2.40667 0.45333,4.24667 1.36,5.52c0.90667,1.27333 2.20333,1.91 3.89,1.91v0c1.64,0 2.92,-0.63 3.84,-1.89c0.92667,-1.26 1.39,-3.27 1.39,-6.03v0c0,-2.36 -0.46333,-4.19 -1.39,-5.49c-0.92,-1.29333 -2.21667,-1.94 -3.89,-1.94v0c-1.65333,0 -2.93333,0.64333 -3.84,1.93c-0.90667,1.28667 -1.36,3.28333 -1.36,5.99zM204.33333,210.39333v0c0,-0.82667 -0.41,-1.47667 -1.23,-1.95c-0.82,-0.48 -2.13667,-0.90667 -3.95,-1.28v0c-6.03333,-1.26667 -9.05,-3.83 -9.05,-7.69v0c0,-2.24667 0.93333,-4.12667 2.8,-5.64c1.86667,-1.50667 4.30667,-2.26 7.32,-2.26v0c3.22,0 5.79667,0.76 7.73,2.28c1.92667,1.51333 2.89,3.48 2.89,5.9v0h-6.77c0,-0.96667 -0.31333,-1.76667 -0.94,-2.4c-0.62667,-0.63333 -1.60333,-0.95 -2.93,-0.95v0c-1.14,0 -2.02333,0.25667 -2.65,0.77c-0.62,0.52 -0.93,1.17667 -0.93,1.97v0c0,0.75333 0.35333,1.36 1.06,1.82c0.71333,0.46 1.91333,0.85667 3.6,1.19c1.68667,0.34 3.10667,0.72 4.26,1.14v0c3.58,1.31333 5.37,3.58667 5.37,6.82v0c0,2.31333 -0.99,4.18333 -2.97,5.61c-1.98667,1.43333 -4.55,2.15 -7.69,2.15v0c-2.12667,0 -4.01333,-0.38 -5.66,-1.14c-1.64667,-0.75333 -2.94,-1.79333 -3.88,-3.12c-0.94,-1.32 -1.41,-2.74333 -1.41,-4.27v0h6.42c0.06667,1.2 0.51333,2.12 1.34,2.76c0.82667,0.64 1.93667,0.96 3.33,0.96v0c1.29333,0 2.27333,-0.24333 2.94,-0.73c0.66667,-0.49333 1,-1.14 1,-1.94zM226.94333,217.87333v0c-3.71333,0 -6.74,-1.14 -9.08,-3.42c-2.33333,-2.28 -3.5,-5.32 -3.5,-9.12v0v-0.66c0,-2.54667 0.49,-4.82333 1.47,-6.83c0.98667,-2.00667 2.38333,-3.55333 4.19,-4.64c1.8,-1.08667 3.85667,-1.63 6.17,-1.63v0c3.47333,0 6.20333,1.09333 8.19,3.28c1.99333,2.18667 2.99,5.29 2.99,9.31v0v2.76h-16.15c0.22,1.66 0.88,2.99 1.98,3.99c1.10667,1 2.50333,1.5 4.19,1.5v0c2.60667,0 4.64667,-0.94667 6.12,-2.84v0l3.32,3.73c-1.01333,1.43333 -2.38667,2.55333 -4.12,3.36c-1.73333,0.80667 -3.65667,1.21 -5.77,1.21zM226.17333,197.06333v0c-1.34667,0 -2.43667,0.45333 -3.27,1.36c-0.83333,0.90667 -1.37,2.20333 -1.61,3.89v0h9.43v-0.54c-0.03333,-1.5 -0.44,-2.66 -1.22,-3.48c-0.78,-0.82 -1.89,-1.23 -3.33,-1.23z"></path></g></g></svg>